<svg xmlns="http://www.w3.org/2000/svg" width="11" height="10" viewBox="0 0 11 10"><g><g><path fill="#e11fff" d="M7.289 5.8H1.794A.797.797 0 0 1 1 5c0-.442.356-.8.794-.8H7.29L5.468 2.366a.804.804 0 0 1 0-1.132.79.79 0 0 1 1.123 0l3.176 3.2c.31.313.31.82 0 1.132l-3.176 3.2a.79.79 0 0 1-1.123 0 .804.804 0 0 1 0-1.132z"/><path fill="none" stroke="#fff" stroke-miterlimit="50" stroke-width=".2" d="M7.289 5.8v0H1.794A.797.797 0 0 1 1 5c0-.442.356-.8.794-.8H7.29v0L5.468 2.366a.804.804 0 0 1 0-1.132.79.79 0 0 1 1.123 0l3.176 3.2c.31.313.31.82 0 1.132l-3.176 3.2a.79.79 0 0 1-1.123 0 .804.804 0 0 1 0-1.132z"/></g></g></svg>