<?xml version="1.0" encoding="utf-8"?>
<!-- Generator: Adobe Illustrator 19.0.1, SVG Export Plug-In . SVG Version: 6.00 Build 0)  -->
<svg version="1.1" id="Слой_1" xmlns="http://www.w3.org/2000/svg" xmlns:xlink="http://www.w3.org/1999/xlink" x="0px" y="0px"
	 viewBox="-294 386 22 22" style="enable-background:new -294 386 22 22;" xml:space="preserve">
<path d="M-283,399.5c-1.9,0-3.5-1.6-3.5-3.5s1.6-3.5,3.5-3.5s3.5,1.6,3.5,3.5S-281.1,399.5-283,399.5z M-283,408
	c-6.1,0-11-4.9-11-11s4.9-11,11-11s11,4.9,11,11S-276.9,408-283,408z M-286.5,401h7c1,0,1.9,0.6,2.3,1.5c3-3.2,2.9-8.3-0.3-11.3
	s-8.3-2.9-11.3,0.3c-2.9,3.1-2.9,7.9,0,11C-288.4,401.6-287.5,401-286.5,401z"/>
</svg>
