<svg version="1.1" id="Слой_1" xmlns="http://www.w3.org/2000/svg" xmlns:xlink="http://www.w3.org/1999/xlink" x="0px" y="0px"
	 viewBox="-290 382 30 30" style="enable-background:new -290 382 30 30;" xml:space="preserve">
<path d="M-275,412c8.3,0,15-6.7,15-15s-6.7-15-15-15s-15,6.7-15,15S-283.3,412-275,412z"/>
<path style="fill:#FFFFFF;" d="M-269.8,391l2.8,3.1l-9,8.9l-6-5.8l2.7-2.9l3.4,2.9L-269.8,391z"/>
<path d="M-276,404.4l-7.4-7.1l4-4.4l3.4,2.9l6.3-6.3l4.1,4.6L-276,404.4z M-280.6,397.2l4.6,4.4l7.6-7.6l-1.4-1.6l-6.1,6.2l-3.3-2.9
	L-280.6,397.2z"/>
</svg>
