<svg version="1.1" id="Слой_1" xmlns="http://www.w3.org/2000/svg" xmlns:xlink="http://www.w3.org/1999/xlink" x="0px" y="0px"
	 viewBox="-297 389 16 16" style="enable-background:new -297 389 16 16;" xml:space="preserve">
<path d="M-289.7,393.9h6.3c1.3,0,2.4,1.1,2.4,2.4v6.3c0,1.3-1.1,2.4-2.4,2.4l0,0h-6.3c-1.3,0-2.4-1.1-2.4-2.4v-6.3
	C-292.1,395-291,393.9-289.7,393.9z M-293.9,398c0.6,0,1,0.5,1,1c0,0.6-0.5,1-1,1h-0.7c-1.3,0-2.4-1.1-2.4-2.4v-6.3
	c0-1.3,1.1-2.4,2.4-2.4c0,0,0,0,0,0h6.3c1.3,0,2.4,1.1,2.4,2.4v0.7c0,0.6-0.5,1-1,1c-0.6,0-1-0.5-1-1v-0.7c0-0.2-0.2-0.3-0.3-0.3
	h-6.3c-0.2,0-0.3,0.2-0.3,0.3l0,0v6.3c0,0.2,0.2,0.3,0.3,0.3H-293.9z M-289.7,396c-0.2,0-0.3,0.2-0.3,0.3l0,0v6.3
	c0,0.2,0.2,0.3,0.3,0.3h6.3c0.2,0,0.3-0.2,0.3-0.3l0,0v-6.3c0-0.2-0.2-0.3-0.3-0.3l0,0H-289.7z"/>
</svg>
