<svg version="1.1" xmlns="http://www.w3.org/2000/svg" xmlns:xlink="http://www.w3.org/1999/xlink" x="0px" y="0px"
	 viewBox="-298 389 15 15" style="enable-background:new -298 389 15 15;" xml:space="preserve">
<path d="M-298,399.4c0-0.6,0.5-1.1,1.1-1.1s1.1,0.5,1.1,1.1v2.1c0,0.2,0.2,0.4,0.4,0.4h2.1c0.6,0,1.1,0.5,1.1,1.1s-0.5,1.1-1.1,1.1
	h-2.1c-1.4,0-2.5-1.1-2.5-2.5V399.4z M-287.6,404c-0.6,0-1.1-0.5-1.1-1.1s0.5-1.1,1.1-1.1l0,0h2.1c0.2,0,0.4-0.2,0.4-0.4v-2.1
	c0-0.6,0.5-1.1,1.1-1.1s1.1,0.5,1.1,1.1l0,0v2.1c0,1.4-1.1,2.5-2.5,2.5H-287.6z M-283,393.6c0,0.6-0.5,1.1-1.1,1.1s-1.1-0.5-1.1-1.1
	v-2.1c0-0.2-0.2-0.4-0.4-0.4l0,0h-2.1c-0.6,0-1.1-0.5-1.1-1.1s0.5-1.1,1.1-1.1h2.1c1.4,0,2.5,1.1,2.5,2.5V393.6z M-293.4,389
	c0.6,0,1.1,0.5,1.1,1.1s-0.5,1.1-1.1,1.1h-2.1c-0.2,0-0.4,0.2-0.4,0.4l0,0v2.1c0,0.6-0.5,1.1-1.1,1.1s-1.1-0.5-1.1-1.1v-2.1
	c0-1.4,1.1-2.5,2.5-2.5H-293.4z"/>
</svg>
