<svg version="1.1" xmlns="http://www.w3.org/2000/svg" xmlns:xlink="http://www.w3.org/1999/xlink" x="0px" y="0px"
	 viewBox="-294 384 23 25" style="enable-background:new -294 384 23 25;" xml:space="preserve">
<path d="M-281.3,406h-3.5c-0.6,0-1,0.4-1,1c0,0.2,0,0.3,0.1,0.5c0.8,1.4,2.7,1.9,4.1,1.1c0.5-0.3,0.8-0.6,1.1-1.1
	c0.3-0.5,0.1-1.1-0.4-1.4C-280.9,406-281.1,406-281.3,406z M-273,402c-1.1,0-2-0.9-2-2v-5c0-4.4-3.6-8-8-8s-8,3.6-8,8v5
	c0,1.1-0.9,2-2,2c-1.3,0-1.3,2,0,2h20C-271.7,404-271.7,402-273,402L-273,402z"/>
<path style="fill:none;" d="M-280,393v-9h9v9H-280z M-275.5,391c1.4,0,2.5-1.1,2.5-2.5s-1.1-2.5-2.5-2.5s-2.5,1.1-2.5,2.5
	S-276.9,391-275.5,391z"/>
<path style="fill:none;stroke:#FFFFFF;stroke-width:4;stroke-miterlimit:50;" d="M-275.5,391c1.4,0,2.5-1.1,2.5-2.5s-1.1-2.5-2.5-2.5s-2.5,1.1-2.5,2.5S-276.9,391-275.5,391z"/>
<path style="fill:#E11FFF;" d="M-275.5,391c1.4,0,2.5-1.1,2.5-2.5s-1.1-2.5-2.5-2.5s-2.5,1.1-2.5,2.5S-276.9,391-275.5,391z"/>
</svg>
