<svg version="1.1" xmlns="http://www.w3.org/2000/svg" xmlns:xlink="http://www.w3.org/1999/xlink" x="0px" y="0px"
	 viewBox="-297 390 16 13" style="enable-background:new -297 390 16 13;" xml:space="preserve">
<path d="M-282,403c0.5,0,1-0.4,1-1v-1.1c0-1.8-1.6-3.1-3.5-3.1h-2.6c1.9,0,3.5,1.4,3.5,3.1v1.1c0,0.5-0.4,1-1,1H-282z M-287.1,397.1
	c1.9,0,3.5-1.6,3.5-3.6c0-2-1.6-3.6-3.5-3.6c-0.5,0-0.9,0.1-1.3,0.2c1.4,0.5,2.2,1.9,2.2,3.3c0,1.5-0.9,2.8-2.2,3.3
	C-288,397.1-287.5,397.1-287.1,397.1z M-284.8,400.9c0-1.8-1.6-3.1-3.5-3.1h-5.1c-1.9,0-3.5,1.4-3.5,3.1v1.1c0,0.5,0.4,1,1,1h10.2
	c0.5,0,1-0.4,1-1V400.9z M-287.4,393.6c0-2-1.6-3.6-3.5-3.6s-3.5,1.6-3.5,3.6c0,2,1.6,3.6,3.5,3.6S-287.4,395.5-287.4,393.6z"/>
</svg>
