<?xml version="1.0" encoding="utf-8"?>
<!-- Generator: Adobe Illustrator 19.0.1, SVG Export Plug-In . SVG Version: 6.00 Build 0)  -->
<svg version="1.1" id="Слой_1" xmlns="http://www.w3.org/2000/svg" xmlns:xlink="http://www.w3.org/1999/xlink" x="0px" y="0px"
	 viewBox="-292 384 26 26" style="enable-background:new -292 384 26 26;" xml:space="preserve">
<path d="M-279,409.5c-6.9,0-12.5-5.6-12.5-12.5s5.6-12.5,12.5-12.5s12.5,5.6,12.5,12.5S-272.1,409.5-279,409.5z M-279,387.5
	c-5.2,0-9.5,4.3-9.5,9.5s4.3,9.5,9.5,9.5s9.5-4.3,9.5-9.5S-273.8,387.5-279,387.5z"/>
<path d="M-278.8,393.1c-1.2,0-2.1,0.9-2.1,2.1c0,0.6-0.5,1.1-1.1,1.1s-1.1-0.5-1.1-1.1c0,0,0,0,0,0c0-2.3,1.9-4.2,4.2-4.2
	c2.4,0,4.2,1.7,4.2,4c0,1.3-0.4,2-1.4,2.9c-0.1,0.1-1.2,1-1.2,1c-0.4,0.4-0.5,0.5-0.5,1c0,0.6-0.5,1.1-1.1,1.1s-1.1-0.5-1.1-1.1
	c0,0,0,0,0,0c0-1.2,0.4-2,1.3-2.7c0,0,1.1-0.9,1.2-1c0.5-0.5,0.7-0.7,0.7-1.3C-276.6,393.9-277.5,393.1-278.8,393.1z"/>
<path d="M-278.8,401.1c-0.6,0-1.2-0.5-1.2-1.2c0-1.2,0.4-2,1.4-2.8l0,0c0,0,0.1-0.1,0.2-0.2c0.3-0.3,0.9-0.7,1-0.8
	c0.5-0.4,0.6-0.7,0.6-1.2c0-1-0.9-1.8-2-1.8c-1.1,0-2,0.9-2,2c0,0.6-0.5,1.2-1.2,1.2c0,0,0,0,0,0c-0.3,0-0.6-0.1-0.8-0.3
	s-0.3-0.5-0.3-0.8c0-2.4,1.9-4.3,4.3-4.3c2.5,0,4.3,1.8,4.3,4.1c0,1.2-0.4,2.1-1.4,2.9c-0.1,0.1-1.2,1-1.2,1c-0.4,0.3-0.5,0.5-0.5,1
	C-277.6,400.6-278.1,401.1-278.8,401.1z M-278.4,397.3c-0.9,0.7-1.3,1.5-1.3,2.6c0,0.5,0.4,1,1,1s1-0.4,1-1c0-0.6,0.1-0.8,0.6-1.1
	c0.1-0.1,1.1-0.9,1.2-1c1-0.9,1.4-1.6,1.4-2.8c0-2.2-1.8-3.9-4.1-3.9c-2.3,0-4.1,1.9-4.1,4.1c0,0.3,0.1,0.5,0.3,0.7
	c0.2,0.2,0.4,0.3,0.7,0.3c0,0,0,0,0,0c0.5,0,1-0.4,1-1c0-1.2,1-2.2,2.2-2.2c1.3,0,2.2,0.8,2.2,2c0,0.6-0.1,0.9-0.7,1.3
	c-0.1,0-0.6,0.5-1,0.8C-278.3,397.2-278.4,397.3-278.4,397.3L-278.4,397.3L-278.4,397.3L-278.4,397.3z"/>
<path d="M-278.8,404.1c-0.6,0-1.1-0.5-1.1-1.1s0.5-1.1,1.1-1.1c0,0,0,0,0,0c0.6,0,1.1,0.5,1.1,1.1
	C-277.7,403.6-278.2,404.1-278.8,404.1z"/>
<path d="M-278.8,404.2c-0.6,0-1.2-0.5-1.2-1.2c0-0.6,0.5-1.2,1.2-1.2s1.2,0.5,1.2,1.2C-277.6,403.7-278.1,404.2-278.8,404.2z
	 M-278.8,402.1c-0.5,0-1,0.4-1,1c0,0.5,0.4,1,1,1s1-0.4,1-1C-277.8,402.5-278.2,402.1-278.8,402.1z"/>
</svg>
