<svg version="1.1" id="Слой_1" xmlns="http://www.w3.org/2000/svg" xmlns:xlink="http://www.w3.org/1999/xlink" x="0px" y="0px"
	 viewBox="-246 380 119 34" style="enable-background:new -246 380 119 34;" xml:space="preserve">
<style type="text/css">
	.st0{fill:#304851;}
	.st1{fill:#BFC9D0;}
</style>
<path class="st0" d="M-142.6,384.2l5.6,12.9l-3.1,6.9h4.5l8.4-19.7h-4.5l-3,8.2l-3.2-8.2L-142.6,384.2z M-148.3,388.5
	c0.6,0.6,0.8,1.4,0.8,2.4c0,1-0.3,1.8-0.8,2.4c-0.6,0.6-1.3,0.9-2.1,0.9c-0.9,0-1.6-0.3-2.1-0.9c-0.5-0.6-0.8-1.4-0.8-2.4
	c0-1,0.3-1.8,0.8-2.4c0.5-0.6,1.2-0.9,2.1-0.9C-149.6,387.6-148.9,387.9-148.3,388.5z M-154.7,384.9c-0.9,0.6-1.6,1.3-2.1,2.4
	c-0.5,1-0.8,2.2-0.8,3.7c0,1.4,0.3,2.6,0.8,3.6c0.5,1,1.2,1.8,2.1,2.4c0.9,0.5,1.9,0.8,3,0.8c1,0,1.9-0.2,2.6-0.7
	c0.7-0.4,1.3-1.1,1.6-1.9v2.4h4.1v-13.4h-4.1v2.4c-0.3-0.8-0.9-1.4-1.6-1.9c-0.7-0.5-1.6-0.7-2.6-0.7
	C-152.9,384-153.9,384.3-154.7,384.9z M-167.1,388.3v-4.4h2.1c1.7,0,2.5,0.7,2.5,2.2c0,1.4-0.8,2.2-2.5,2.2H-167.1z M-164.5,391.6
	c1.3,0,2.5-0.2,3.4-0.7c0.9-0.5,1.6-1.1,2.1-1.9c0.5-0.8,0.7-1.8,0.7-2.8c0-1.7-0.5-3-1.6-4c-1.1-1-2.6-1.5-4.6-1.5h-6.7v16.9h4.1
	v-5.9H-164.5z M-174.3,394.1c-0.5,0-0.9-0.1-1.1-0.3c-0.2-0.2-0.3-0.6-0.3-1.1v-5h2.7v-3.5h-2.7v-3.3h-4.1v3.3h-1.8v3.5h1.8v4.9
	c0,1.8,0.4,3.1,1.3,3.8c0.9,0.8,2.1,1.2,3.7,1.2h1.8v-3.5H-174.3z M-187.1,388.4c0.5,0.6,0.8,1.4,0.8,2.5s-0.3,1.9-0.8,2.4
	c-0.5,0.6-1.2,0.8-2,0.8s-1.4-0.3-2-0.8c-0.5-0.6-0.8-1.4-0.8-2.4s0.3-1.9,0.8-2.5c0.5-0.6,1.2-0.9,2-0.8
	C-188.3,387.6-187.6,387.9-187.1,388.4L-187.1,388.4z M-192.7,384.9c-1,0.5-1.9,1.4-2.5,2.4c-0.6,1-0.9,2.3-0.9,3.6
	c0,1.4,0.3,2.6,0.9,3.6c0.6,1,1.4,1.8,2.5,2.4c1.1,0.5,2.2,0.8,3.6,0.8c1.3,0,2.5-0.3,3.6-0.8c1-0.5,1.9-1.4,2.5-2.4
	c0.6-1,0.9-2.3,0.9-3.6c0-1.4-0.3-2.6-0.9-3.6c-0.6-1-1.4-1.8-2.5-2.4c-1-0.6-2.2-0.8-3.6-0.8C-190.4,384-191.6,384.3-192.7,384.9z
	 M-197.6,380.6h-4.1v10.5l-6.9-10.5h-4.1v16.9h4.1v-10.4l6.9,10.4h4.1L-197.6,380.6z M-219.3,388.4c0.5,0.6,0.8,1.4,0.8,2.5
	s-0.3,1.9-0.8,2.4c-0.5,0.6-1.2,0.8-2,0.8c-0.8,0-1.4-0.3-2-0.8c-0.5-0.6-0.8-1.4-0.8-2.4s0.3-1.9,0.8-2.5c0.5-0.6,1.2-0.9,2-0.8
	C-220.5,387.6-219.8,387.9-219.3,388.4L-219.3,388.4z M-224.8,384.9c-1,0.5-1.9,1.4-2.5,2.4c-0.6,1-0.9,2.3-0.9,3.6
	c0,1.4,0.3,2.6,0.9,3.6c0.6,1,1.4,1.8,2.5,2.4c1.1,0.5,2.3,0.8,3.6,0.8c1.3,0,2.5-0.3,3.6-0.8c1-0.5,1.9-1.4,2.5-2.4
	c0.6-1,0.9-2.3,0.9-3.6c0-1.4-0.3-2.6-0.9-3.6c-0.6-1-1.4-1.8-2.5-2.4c-1-0.6-2.2-0.8-3.6-0.8S-223.8,384.3-224.8,384.9z
	 M-240.5,393.9v-9.7h1.9c1.6,0,2.8,0.4,3.7,1.3c0.9,0.8,1.3,2,1.3,3.6c0,1.5-0.4,2.7-1.3,3.6c-0.9,0.8-2.1,1.3-3.7,1.3L-240.5,393.9
	z M-230.4,384.7c-0.7-1.3-1.7-2.3-3.1-3c-1.3-0.7-2.9-1.1-4.7-1.1h-6.4v16.9h6.4c1.8,0,3.4-0.4,4.7-1.1c1.3-0.7,2.4-1.7,3.1-3
	c0.7-1.3,1.1-2.8,1.1-4.4C-229.3,387.4-229.7,385.9-230.4,384.7L-230.4,384.7z"/>
<path class="st1" d="M-150.3,412.7h3.2v1.2h-4.7v-9.2h1.5V412.7z M-157.9,410.8l-1.5-4.3l-1.5,4.3H-157.9z M-157.5,411.9h-3.9
	l-0.7,2h-1.6l3.4-9.1h1.7l3.4,9.1h-1.6L-157.5,411.9z M-166.4,404.7v1.2h-2.6v8h-1.5v-8h-2.6v-1.2H-166.4z M-180.9,409.2h1.6
	c1.2,0,1.8-0.5,1.8-1.6c0-0.5-0.1-0.9-0.4-1.2c-0.3-0.3-0.8-0.4-1.4-0.4h-1.6V409.2z M-177.6,413.9l-2.3-3.7h-1.1v3.7h-1.5v-9.2h3.3
	c1.1,0,1.9,0.3,2.4,0.8c0.5,0.5,0.8,1.2,0.8,2c0,0.7-0.2,1.3-0.6,1.8c-0.4,0.5-1,0.8-1.8,0.9l2.4,3.7H-177.6z M-190.8,406
	c-0.6,0-1.1,0.1-1.6,0.4c-0.5,0.3-0.8,0.7-1.1,1.2c-0.3,0.5-0.4,1.1-0.4,1.8c0,0.7,0.1,1.3,0.4,1.8c0.3,0.5,0.6,0.9,1.1,1.2
	c0.5,0.3,1,0.4,1.6,0.4c0.6,0,1.1-0.1,1.6-0.4c0.5-0.3,0.8-0.7,1.1-1.2c0.3-0.5,0.4-1.1,0.4-1.8c0-0.7-0.1-1.3-0.4-1.8
	c-0.2-0.5-0.6-0.9-1.1-1.2C-189.7,406.1-190.2,405.9-190.8,406z M-190.8,404.6c0.9,0,1.6,0.2,2.3,0.6c0.7,0.4,1.3,1,1.6,1.7
	c0.4,0.7,0.6,1.5,0.6,2.4c0,0.9-0.2,1.7-0.6,2.4c-0.4,0.7-0.9,1.3-1.6,1.7c-0.7,0.4-1.5,0.6-2.3,0.6c-0.9,0-1.6-0.2-2.3-0.6
	c-0.7-0.4-1.3-1-1.6-1.7c-0.4-0.7-0.6-1.5-0.6-2.4c0-0.9,0.2-1.7,0.6-2.4c0.4-0.7,1-1.3,1.6-1.7
	C-192.4,404.8-191.6,404.6-190.8,404.6z M-202,409.1c1.2,0,1.8-0.5,1.8-1.6c0-0.5-0.1-0.9-0.4-1.2c-0.3-0.3-0.8-0.4-1.4-0.4h-1.5
	v3.2H-202z M-203.5,410.3v3.6h-1.5v-9.2h3.1c1.1,0,1.9,0.3,2.4,0.8c0.5,0.5,0.8,1.2,0.8,2.1c0,0.9-0.3,1.6-0.8,2.1
	c-0.6,0.5-1.3,0.8-2.4,0.8L-203.5,410.3z M-217.4,412.7c0.6,0,1-0.1,1.3-0.4c0.3-0.3,0.5-0.6,0.5-1.1s-0.2-0.8-0.5-1.1
	c-0.3-0.3-0.8-0.4-1.3-0.4h-1.9v2.9L-217.4,412.7z M-219.2,408.7h1.8c0.5,0,0.9-0.1,1.2-0.4c0.3-0.2,0.4-0.6,0.4-1
	c0-0.4-0.1-0.8-0.4-1c-0.3-0.2-0.7-0.4-1.3-0.4h-1.8V408.7z M-215.9,409.2c0.6,0.1,1,0.4,1.4,0.8c0.3,0.4,0.5,0.9,0.5,1.5
	c0,0.8-0.3,1.4-0.8,1.8c-0.5,0.4-1.3,0.7-2.2,0.7h-3.7v-9.2h3.6c0.9,0,1.6,0.2,2.1,0.6c0.5,0.4,0.7,1,0.7,1.7c0,0.6-0.2,1.1-0.5,1.4
	C-215,408.8-215.4,409-215.9,409.2z M-228.3,405.9v2.8h3.4v1.1h-3.4v2.9h3.8v1.2h-5.3v-9.2h5.3v1.2H-228.3z M-233.4,404.7l-2.3,9.2
	h-1.8l-2-7.1l-2,7.1h-1.8l-2.3-9.2h1.6l1.6,7.5l2-7.5h1.7l2,7.5l1.6-7.5H-233.4z"/>
</svg>
