<svg xmlns="http://www.w3.org/2000/svg" style="position: absolute; height: 0; overflow: hidden;" class="icons-sprite">
    <symbol id="icon-arrow-r" viewBox="0 0 11 10">
        <title>Icon arrow-r</title>
        <path fill="#e11fff" d="M7.289 5.8H1.794A.797.797 0 0 1 1 5c0-.442.356-.8.794-.8H7.29L5.468 2.366a.804.804 0 0 1 0-1.132.79.79 0 0 1 1.123 0l3.176 3.2c.31.313.31.82 0 1.132l-3.176 3.2a.79.79 0 0 1-1.123 0 .804.804 0 0 1 0-1.132z"/><path fill="none" stroke="#fff" stroke-miterlimit="50" stroke-width=".2" d="M7.289 5.8H1.794A.797.797 0 0 1 1 5c0-.442.356-.8.794-.8H7.29L5.468 2.366a.804.804 0 0 1 0-1.132.79.79 0 0 1 1.123 0l3.176 3.2c.31.313.31.82 0 1.132l-3.176 3.2a.79.79 0 0 1-1.123 0 .804.804 0 0 1 0-1.132z"/>
    </symbol>
    <symbol id="icon-arrow" viewBox="0 0 7 10">
        <title>Icon arrow</title>
        <path fill="none" stroke="#c7d4e7" stroke-linecap="round" stroke-miterlimit="50" stroke-width="2" d="M1 1l4 4.226L1 9"/>
    </symbol>
    <symbol id="icon-ava" viewBox="-294 386 22 22">
        <title>Icon ava</title>
        <path d="M-283 399.5c-1.9 0-3.5-1.6-3.5-3.5s1.6-3.5 3.5-3.5 3.5 1.6 3.5 3.5-1.6 3.5-3.5 3.5zm0 8.5c-6.1 0-11-4.9-11-11s4.9-11 11-11 11 4.9 11 11-4.9 11-11 11zm-3.5-7h7c1 0 1.9.6 2.3 1.5 3-3.2 2.9-8.3-.3-11.3s-8.3-2.9-11.3.3c-2.9 3.1-2.9 7.9 0 11 .4-.9 1.3-1.5 2.3-1.5z"/>
    </symbol>
    <symbol id="icon-burger" viewBox="0 0 18 15">
        <title>Icon burger</title>
        <path fill="none" stroke="#98a9b9" stroke-miterlimit="50" stroke-width="2.8" d="M0 1.5h18M0 7.5h11M0 13.5h5"/>
    </symbol>
    <symbol id="icon-card" viewBox="0 0 20 15">
        <title>Icon card</title>
        <path fill="#8296a9" d="M2.5 0h15A2.5 2.5 0 0 1 20 2.5v1.667H0V2.5A2.5 2.5 0 0 1 2.5 0zM20 12.5a2.5 2.5 0 0 1-2.5 2.5h-15A2.5 2.5 0 0 1 0 12.5v-5h20z"/>
    </symbol>
    <symbol id="icon-copy" viewBox="-297 389 16 16">
        <title>Icon copy</title>
        <path d="M-289.7 393.9h6.3c1.3 0 2.4 1.1 2.4 2.4v6.3c0 1.3-1.1 2.4-2.4 2.4h-6.3c-1.3 0-2.4-1.1-2.4-2.4v-6.3c0-1.3 1.1-2.4 2.4-2.4zm-4.2 4.1c.6 0 1 .5 1 1 0 .6-.5 1-1 1h-.7c-1.3 0-2.4-1.1-2.4-2.4v-6.3c0-1.3 1.1-2.4 2.4-2.4h6.3c1.3 0 2.4 1.1 2.4 2.4v.7c0 .6-.5 1-1 1-.6 0-1-.5-1-1v-.7c0-.2-.2-.3-.3-.3h-6.3c-.2 0-.3.2-.3.3v6.3c0 .2.2.3.3.3h.6zm4.2-2c-.2 0-.3.2-.3.3v6.3c0 .2.2.3.3.3h6.3c.2 0 .3-.2.3-.3v-6.3c0-.2-.2-.3-.3-.3h-6.3z"/>
    </symbol>
    <symbol id="icon-document" viewBox="-299 389 13 16">
        <title>Icon document</title>
        <path d="M-286 395.5v7.3c0 1.2-1 2.2-2.2 2.2h-8.7c-1.2 0-2.2-1-2.2-2.2v-11.6c0-1.2 1-2.2 2.2-2.2h4.3v5.8c0 .4.3.7.7.7h5.9zm-.4-1.4h-3.9c-.4 0-.7-.3-.7-.7v-3.9l4.6 4.6z"/>
    </symbol>
    <symbol id="icon-frame" viewBox="-298 389 15 15">
        <title>Icon frame</title>
        <path d="M-298 399.4c0-.6.5-1.1 1.1-1.1s1.1.5 1.1 1.1v2.1c0 .2.2.4.4.4h2.1c.6 0 1.1.5 1.1 1.1s-.5 1.1-1.1 1.1h-2.1c-1.4 0-2.5-1.1-2.5-2.5v-2.2zm10.4 4.6c-.6 0-1.1-.5-1.1-1.1s.5-1.1 1.1-1.1h2.1c.2 0 .4-.2.4-.4v-2.1c0-.6.5-1.1 1.1-1.1s1.1.5 1.1 1.1v2.1c0 1.4-1.1 2.5-2.5 2.5h-2.2zm4.6-10.4c0 .6-.5 1.1-1.1 1.1s-1.1-.5-1.1-1.1v-2.1c0-.2-.2-.4-.4-.4h-2.1c-.6 0-1.1-.5-1.1-1.1s.5-1.1 1.1-1.1h2.1c1.4 0 2.5 1.1 2.5 2.5v2.2zm-10.4-4.6c.6 0 1.1.5 1.1 1.1s-.5 1.1-1.1 1.1h-2.1c-.2 0-.4.2-.4.4v2.1c0 .6-.5 1.1-1.1 1.1s-1.1-.5-1.1-1.1v-2.1c0-1.4 1.1-2.5 2.5-2.5h2.2z"/>
    </symbol>
    <symbol id="icon-home" viewBox="-298 389 15 16">
        <title>Icon home</title>
        <path d="M-297.4 393.9l6-4.6c.5-.4 1.3-.4 1.8 0l6 4.6c.4.3.6.7.6 1.2v7.7c0 1.2-1 2.2-2.3 2.2h-10.5c-1.2 0-2.3-1-2.3-2.2v-7.7c.1-.5.3-.9.7-1.2z"/>
    </symbol>
    <symbol id="icon-man" viewBox="0 0 17 18">
        <title>Icon man</title>
        <path fill="#c5ccdc" d="M17.1 16.65A1.35 1.35 0 0 1 15.75 18H1.35A1.35 1.35 0 0 1 0 16.65v-1.5c0-2.462 2.265-4.35 4.95-4.35h7.2c2.685 0 4.95 1.888 4.95 4.35zM8.55 9.9a4.95 4.95 0 1 1 0-9.9 4.95 4.95 0 0 1 0 9.9z"/>
    </symbol>
    <symbol id="icon-notification" viewBox="-294 384 23 25">
        <title>Icon notification</title>
        <path d="M-281.3 406h-3.5c-.6 0-1 .4-1 1 0 .2 0 .3.1.5.8 1.4 2.7 1.9 4.1 1.1.5-.3.8-.6 1.1-1.1.3-.5.1-1.1-.4-1.4 0-.1-.2-.1-.4-.1zm8.3-4c-1.1 0-2-.9-2-2v-5c0-4.4-3.6-8-8-8s-8 3.6-8 8v5c0 1.1-.9 2-2 2-1.3 0-1.3 2 0 2h20c1.3 0 1.3-2 0-2z"/><path d="M-280 393v-9h9v9h-9zm4.5-2c1.4 0 2.5-1.1 2.5-2.5s-1.1-2.5-2.5-2.5-2.5 1.1-2.5 2.5 1.1 2.5 2.5 2.5z" fill="none"/><path d="M-275.5 391c1.4 0 2.5-1.1 2.5-2.5s-1.1-2.5-2.5-2.5-2.5 1.1-2.5 2.5 1.1 2.5 2.5 2.5z" fill="none" stroke="#fff" stroke-width="4" stroke-miterlimit="50"/><path d="M-275.5 391c1.4 0 2.5-1.1 2.5-2.5s-1.1-2.5-2.5-2.5-2.5 1.1-2.5 2.5 1.1 2.5 2.5 2.5z" fill="#e11fff"/>
    </symbol>
    <symbol id="icon-people" viewBox="-297 390 16 13">
        <title>Icon people</title>
        <path d="M-282 403c.5 0 1-.4 1-1v-1.1c0-1.8-1.6-3.1-3.5-3.1h-2.6c1.9 0 3.5 1.4 3.5 3.1v1.1c0 .5-.4 1-1 1h2.6zm-5.1-5.9c1.9 0 3.5-1.6 3.5-3.6s-1.6-3.6-3.5-3.6c-.5 0-.9.1-1.3.2 1.4.5 2.2 1.9 2.2 3.3 0 1.5-.9 2.8-2.2 3.3.4.4.9.4 1.3.4zm2.3 3.8c0-1.8-1.6-3.1-3.5-3.1h-5.1c-1.9 0-3.5 1.4-3.5 3.1v1.1c0 .5.4 1 1 1h10.2c.5 0 1-.4 1-1v-1.1zm-2.6-7.3c0-2-1.6-3.6-3.5-3.6s-3.5 1.6-3.5 3.6 1.6 3.6 3.5 3.6 3.5-1.7 3.5-3.6z"/>
    </symbol>
    <symbol id="icon-phone" viewBox="0 0 15 25">
        <title>Icon phone</title>
        <path fill="#929aac" d="M7.526 20a1.25 1.25 0 1 1 .001-2.5 1.25 1.25 0 0 1 0 2.5zM15 22.5a2.5 2.5 0 0 1-2.5 2.5h-10A2.5 2.5 0 0 1 0 22.5v-20A2.5 2.5 0 0 1 2.5 0h10A2.5 2.5 0 0 1 15 2.5zM12.5 3.75c0-.69-.56-1.25-1.25-1.25h-7.5c-.69 0-1.25.56-1.25 1.25v17.5c0 .69.56 1.25 1.25 1.25h7.5c.69 0 1.25-.56 1.25-1.25z"/>
    </symbol>
    <symbol id="icon-question" viewBox="-292 384 26 26">
        <title>Icon question</title>
        <path d="M-279 409.5c-6.9 0-12.5-5.6-12.5-12.5s5.6-12.5 12.5-12.5 12.5 5.6 12.5 12.5-5.6 12.5-12.5 12.5zm0-22c-5.2 0-9.5 4.3-9.5 9.5s4.3 9.5 9.5 9.5 9.5-4.3 9.5-9.5-4.3-9.5-9.5-9.5z"/><path d="M-278.8 393.1c-1.2 0-2.1.9-2.1 2.1 0 .6-.5 1.1-1.1 1.1s-1.1-.5-1.1-1.1c0-2.3 1.9-4.2 4.2-4.2 2.4 0 4.2 1.7 4.2 4 0 1.3-.4 2-1.4 2.9-.1.1-1.2 1-1.2 1-.4.4-.5.5-.5 1 0 .6-.5 1.1-1.1 1.1s-1.1-.5-1.1-1.1c0-1.2.4-2 1.3-2.7 0 0 1.1-.9 1.2-1 .5-.5.7-.7.7-1.3.2-1-.7-1.8-2-1.8z"/><path d="M-278.8 401.1c-.6 0-1.2-.5-1.2-1.2 0-1.2.4-2 1.4-2.8l.2-.2c.3-.3.9-.7 1-.8.5-.4.6-.7.6-1.2 0-1-.9-1.8-2-1.8s-2 .9-2 2c0 .6-.5 1.2-1.2 1.2-.3 0-.6-.1-.8-.3s-.3-.5-.3-.8c0-2.4 1.9-4.3 4.3-4.3 2.5 0 4.3 1.8 4.3 4.1 0 1.2-.4 2.1-1.4 2.9-.1.1-1.2 1-1.2 1-.4.3-.5.5-.5 1 0 .7-.5 1.2-1.2 1.2zm.4-3.8c-.9.7-1.3 1.5-1.3 2.6 0 .5.4 1 1 1s1-.4 1-1 .1-.8.6-1.1c.1-.1 1.1-.9 1.2-1 1-.9 1.4-1.6 1.4-2.8 0-2.2-1.8-3.9-4.1-3.9s-4.1 1.9-4.1 4.1c0 .3.1.5.3.7.2.2.4.3.7.3.5 0 1-.4 1-1 0-1.2 1-2.2 2.2-2.2 1.3 0 2.2.8 2.2 2 0 .6-.1.9-.7 1.3-.1 0-.6.5-1 .8-.3.1-.4.2-.4.2zM-278.8 404.1c-.6 0-1.1-.5-1.1-1.1s.5-1.1 1.1-1.1c.6 0 1.1.5 1.1 1.1 0 .6-.5 1.1-1.1 1.1z"/><path d="M-278.8 404.2c-.6 0-1.2-.5-1.2-1.2 0-.6.5-1.2 1.2-1.2s1.2.5 1.2 1.2-.5 1.2-1.2 1.2zm0-2.1c-.5 0-1 .4-1 1 0 .5.4 1 1 1s1-.4 1-1-.4-1-1-1z"/>
    </symbol>
    <symbol id="icon-shield" viewBox="-298 389 14 16">
        <title>Icon shield</title>
        <path d="M-290.7 404.9c-.2.1-.5.1-.7 0-1.2-.6-2.3-1.3-3.3-2.1-2.1-1.7-3.4-3.7-3.4-5.8v-5.8c0-.3.2-.6.6-.7l6.2-1.5h.4l6.2 1.5c.3.1.6.4.6.7v5.8c0 2.2-1.3 4.1-3.4 5.8-.9.8-2 1.5-3.2 2.1z"/>
    </symbol>
    <symbol id="icon-star" viewBox="-298 390 15 14">
        <title>Icon star</title>
        <path d="M-291.1 390.4c.2-.3.6-.5.9-.3l.3.3 1.9 3.9 4.4.6c.6.1.8.8.4 1.1l-3.2 3 .7 4.2c.1.5-.5 1-1 .7l-3.9-2-3.9 2c-.5.3-1.1-.2-1-.7l.7-4.2-3.2-3c-.4-.4-.2-1.1.4-1.1l4.4-.6 2.1-3.9z"/>
    </symbol>
    <symbol id="icon-check" viewBox="-290 382 30 30">
        <path d="M-275,412c8.3,0,15-6.7,15-15s-6.7-15-15-15s-15,6.7-15,15S-283.3,412-275,412z"/>
        <path style="fill:#FFFFFF;" d="M-269.8,391l2.8,3.1l-9,8.9l-6-5.8l2.7-2.9l3.4,2.9L-269.8,391z"/>
        <path d="M-276,404.4l-7.4-7.1l4-4.4l3.4,2.9l6.3-6.3l4.1,4.6L-276,404.4z M-280.6,397.2l4.6,4.4l7.6-7.6l-1.4-1.6l-6.1,6.2l-3.3-2.9
            L-280.6,397.2z"/>
    </symbol>

</svg>
